<svg version="1.0" id="ten" xmlns="http://www.w3.org/2000/svg" xmlns:xlink="http://www.w3.org/1999/xlink" x="0px" y="0px"
	 width="150px" height="150px" viewBox="0 0 150 150" enable-background="new 0 0 150 150" xml:space="preserve">
<path id="_x33_" d="M150.363,76.145c0,40.791-33.065,73.857-73.853,73.857c-40.791,0-73.857-33.066-73.857-73.857
	c0-40.787,33.066-73.855,73.857-73.855C117.298,2.289,150.363,35.357,150.363,76.145z"/>
<path id="_x32_" fill="#FFFFFF" d="M148.074,73.854c0,40.793-33.064,73.859-73.854,73.859c-40.791,0-73.857-33.066-73.857-73.859
	C0.363,33.068,33.43,0,74.221,0C115.01,0,148.074,33.068,148.074,73.854z"/>
<path id="_x31_" fill="#FF6600" d="M103.511,88.633c-0.72-0.896-2.178-1.988-3.982-2.969c-3.224-1.742-9.276-3.541-11.939-4.832
	l-3.173-2.619c-1.033-0.543-1.6-2.191-1.451-3.32c0.084-0.453,0.606-0.926,0.783-1.418c1.144-2.152,3.049-4.732,3.539-7.566
	c0.164,0.029,0.364,0.049,0.584,0.049c0.014,0,0.023,0,0.033,0c0.004,0,0.011,0,0.016,0c0.253,0,0.535-0.023,0.846-0.105
	c1.17-0.305,1.588-2.338,1.588-2.338s1.001-3.186,1.17-3.77c0.168-0.584,0.671-1.84,0.504-3.178
	c-0.148-1.189-1.043-1.801-1.812-1.785c-0.118-0.004-0.231,0.004-0.343,0.029c-0.246,0.059-0.509,0.209-0.773,0.418
	c-0.023,0.016-0.047,0.031-0.07,0.039c-0.305,0.047-0.641-0.303-0.584-0.625c0.437-2.408,0.672-4.859,0.672-7.229
	c0-8.152-6.608-14.762-14.761-14.762c-0.009,0-0.019,0-0.019,0c-0.021,0-0.032,0-0.041,0c-8.149,0-14.76,6.609-14.76,14.762
	c0,2.369,0.234,4.82,0.67,7.229c0.059,0.322-0.277,0.672-0.584,0.625c-0.023-0.008-0.047-0.023-0.068-0.039
	c-0.262-0.209-0.533-0.359-0.773-0.418c-0.112-0.025-0.229-0.033-0.344-0.029c-0.77-0.016-1.663,0.596-1.809,1.785
	c-0.167,1.338,0.335,2.594,0.502,3.178c0.165,0.584,1.168,3.77,1.168,3.77s0.419,2.033,1.589,2.338
	c0.312,0.082,0.594,0.105,0.849,0.105c0.002,0,0.008,0,0.008,0c0.018,0,0.025,0,0.039,0c0.222,0,0.42-0.02,0.588-0.049
	c0.486,2.834,2.788,5.414,3.928,7.566c0.181,0.492,0.705,0.965,0.787,1.418c0.154,1.184-0.894,2.93-1.887,3.443l-3.275,2.561
	c-2.694,1.287-8.632,3.057-11.798,4.768c-1.803,0.98-3.263,2.072-3.98,2.969c-2.919,2.379-3.665,15.258-1.825,17.977
	c1.643,2.123,2.029,5.047,31.008,5.047c28.976,0,29.365-2.924,31.006-5.047C107.012,103.891,105.811,90.449,103.511,88.633z
	 M69.789,82.531h8.883l-3.49,6.193h-1.9L69.789,82.531z M74.162,109.93l-4.547-3.305l3.49-15.797h2.247l3.494,15.797L74.162,109.93z
	"/>
</svg>
