<svg version="1.0" id="_x31_4" xmlns="http://www.w3.org/2000/svg" xmlns:xlink="http://www.w3.org/1999/xlink" x="0px" y="0px"
	 width="150px" height="150px" viewBox="0 0 150 150" enable-background="new 0 0 150 150" xml:space="preserve">
<path id="_x33_" fill="#676369" d="M149.894,76.089c0,40.789-33.064,73.855-73.853,73.855c-40.793,0-73.857-33.066-73.857-73.855
	S35.248,2.231,76.041,2.231C116.829,2.231,149.894,35.3,149.894,76.089z"/>
<path id="_x32_" fill="#FFFFFF" d="M147.605,73.796c0,40.793-33.066,73.859-73.855,73.859c-40.79,0-73.856-33.066-73.856-73.859
	c0-40.785,33.066-73.852,73.856-73.852C114.539-0.056,147.605,33.011,147.605,73.796z"/>
<path id="_x31_" fill-rule="evenodd" clip-rule="evenodd" fill="#F26822" d="M99.317,49.321c3.875,4.863,4.438,11.291,2.053,16.623
	l22.806,28.91c0.43,0.529,0.331,1.49,0.133,2.152l-1.587,5.693c-0.332,0.928-0.96,1.459-1.958,1.521l-6.12,0.436
	c-0.696,0.031-1.655-0.102-2.085-0.631l-2.25-2.881l0.266-4.471l-4.473-0.828l-1.554-1.986l-1.156-5.166L98.69,86.44l-1.487-1.887
	l0.262-2.812l-4.103-2.02l-3.61-4.605c-5.561,1.061-11.451-0.828-15.324-5.367c3.309-1.689,5.957-4.469,7.447-7.943
	c0.662-1.559,1.093-3.213,1.225-4.938c0.397-0.131,0.797-0.328,1.161-0.631c1.755-1.391,2.048-3.938,0.659-5.697
	c-2.084-2.646-6.223-1.719-7.082,1.428c-0.232,0.826-0.199,1.654-0.166,2.486c0.133,1.783-0.066,3.576-0.795,5.23
	c-1.024,2.383-2.881,4.307-5.23,5.396c-2.481-6.424-0.629-13.939,5.066-18.414C83.662,41.142,93.794,42.333,99.317,49.321
	L99.317,49.321z M73.238,41.405c1.718,0.758,3.242,1.756,4.531,2.979c-1.223,0.73-2.347,1.623-3.342,2.619
	c-0.826-0.727-1.755-1.326-2.813-1.756c-5.925-2.551-12.811,0.461-14.965,6.523c-1.056,3.045-0.726,6.291,0.669,8.977
	c-0.136,1.553-0.6,2.977-2.451,3.873c-3.111-4.238-3.973-9.969-1.756-15.166C56.459,41.671,65.46,38.06,73.238,41.405L73.238,41.405
	z M69.859,66.374c3.277-0.826,6.158-3.113,7.612-6.459c0.795-1.885,1.061-3.875,0.795-5.793l0,0
	c-0.032-1.295,0.065-2.75,1.358-3.777c0.495-0.395,1.092-0.627,1.719-0.695c1.559,3.678,1.624,7.951-0.064,11.887
	c-2.219,5.168-6.884,8.482-12.083,9.178C69.662,69.29,69.859,67.864,69.859,66.374L69.859,66.374z M29.942,101.513l7.712,3.543
	c6.92,3.178,15.16,0.096,18.338-6.791l11.947-26.098c3.18-6.922,0.133-15.166-6.787-18.342l-3.902-1.789
	c-0.764,2.217-0.664,3.941-0.299,6.059c1.023,1.357,1.29,3.182,0.53,4.801c-1.093,2.35-3.872,3.377-6.225,2.316
	c-2.348-1.088-3.374-3.871-2.316-6.223c0.495-1.061,1.326-1.855,2.316-2.316c-0.165-2.387,0.136-4.604,0.995-6.854
	c-6.652-2.355-14.166,0.721-17.147,7.283L23.125,83.163C19.982,90.085,23.023,98.329,29.942,101.513L29.942,101.513z"/>
</svg>
