<svg version="1.0" id="six" xmlns="http://www.w3.org/2000/svg" xmlns:xlink="http://www.w3.org/1999/xlink" x="0px" y="0px"
	 width="150px" height="150px" viewBox="0 0 150 150" enable-background="new 0 0 150 150" xml:space="preserve">
<circle id="_x33_" cx="77.145" cy="76.141" r="73.855"/>
<path id="_x32_" fill="#FFFFFF" d="M148.709,73.85c0,40.793-33.064,73.859-73.855,73.859C34.063,147.709,1,114.643,1,73.85
	C1,33.062,34.063-0.004,74.854-0.004C115.645-0.004,148.709,33.062,148.709,73.85z"/>
<path id="_x31_" fill="#FF6600" d="M45.103,98.898l6.982,6.979l-3.902,0.502c-1.197,0.26-2.236,0.027-2.92-0.66
	c-0.691-0.695-0.932-1.729-0.664-2.922L45.103,98.898z M109.063,56.951L94.026,41.914c-2.43-2.434-6.383-2.434-8.818,0l-4.814,4.82
	l23.852,23.854l4.818-4.822C111.501,63.336,111.497,59.387,109.063,56.951z M86.835,57.625L60.407,84.059
	c-0.156,0.15-0.326,0.256-0.482,0.391c-1.365,1.799-1.248,4.361,0.389,6.004l0.129,0.131c1.781,1.777,4.652,1.781,6.447,0.031
	c0.031-0.039,26.463-26.469,26.463-26.469L86.835,57.625z M51.587,81.725c1.645,1.639,4.203,1.758,6.004,0.393
	c0.135-0.158,0.244-0.33,0.393-0.479l26.434-26.434l-6.25-6.246L50.433,76.693c-0.637,1.645-0.299,3.576,1.025,4.906L51.587,81.725z
	 M66.921,101.725c-1.801-1.801-2.518-4.254-2.211-6.598c-2.342,0.311-4.797-0.406-6.6-2.209l-0.131-0.125
	c-1.775-1.785-2.498-4.197-2.219-6.518c-2.318,0.279-4.729-0.443-6.512-2.217L49.12,83.93c-0.76-0.758-1.328-1.635-1.707-2.566
	c-0.025,0.098-0.057,0.184-0.078,0.283l-1.773,13.705l10.066,10.068l13.705-1.771c0.098-0.021,0.191-0.057,0.285-0.076
	c-0.938-0.387-1.807-0.955-2.572-1.715L66.921,101.725z M69.259,92.918c-1.787,1.824-1.779,4.693-0.006,6.48l0.129,0.123
	c1.328,1.324,3.26,1.662,4.904,1.025l27.734-27.736l-6.324-6.326L69.259,92.918z"/>
</svg>
