<svg version="1.0" id="seven" xmlns="http://www.w3.org/2000/svg" xmlns:xlink="http://www.w3.org/1999/xlink" x="0px" y="0px"
	 width="150px" height="150px" viewBox="0 0 150 150" enable-background="new 0 0 150 150" xml:space="preserve">
<circle id="_x33_" cx="76.508" cy="76.141" r="73.855"/>
<path id="_x32_" fill="#FFFFFF" d="M148.074,73.85c0,40.793-33.064,73.859-73.854,73.859c-40.791,0-73.857-33.066-73.857-73.859
	c0-40.787,33.066-73.854,73.857-73.854C115.01-0.004,148.074,33.062,148.074,73.85z"/>
<path id="_x31_" fill="#FF6600" d="M46.97,100.24V84.025c0-0.637,0.519-1.154,1.157-1.154H59.28c0.639,0,1.156,0.518,1.156,1.154
	v16.215c0,0.641-0.518,1.16-1.156,1.16H48.127C47.488,101.4,46.97,100.881,46.97,100.24z M67.713,77.256
	c-0.637,0-1.158,0.518-1.158,1.154v21.83c0,0.641,0.521,1.16,1.158,1.16h11.152c0.637,0,1.156-0.52,1.156-1.16V78.41
	c0-0.637-0.52-1.154-1.156-1.154H67.713z M87.299,65.6c-0.638,0-1.154,0.523-1.154,1.158v33.482c0,0.641,0.517,1.16,1.154,1.16
	H98.45c0.638,0,1.156-0.52,1.156-1.16V66.758c0-0.635-0.519-1.158-1.156-1.158H87.299z M111.076,105.182H42.525l-0.149-0.15V47.133
	c0-1.516-1.228-2.742-2.744-2.742c-1.519,0-2.742,1.227-2.742,2.742v57.898c0,3.111,2.521,5.639,5.636,5.639h68.551
	c1.514,0,2.741-1.229,2.741-2.746C113.817,106.41,112.59,105.182,111.076,105.182z M72.434,71.855
	c4.663-2.162,9.423-5.262,13.705-9.656c3.549-3.633,6.754-8.166,9.338-13.719c0.437,2.773,0.876,5.553,1.316,8.32l6.367-1.004
	c-0.892-5.629-3.328-21.031-3.328-21.031s-14.588,5.709-20.498,8.238l2.541,5.924c2.553-1.096,5.098-2.041,7.674-2.99
	c-2.267,4.824-5.016,8.674-8.022,11.76c-5.516,5.656-11.932,8.818-17.811,10.582c-5.873,1.764-11.182,2.096-14.249,2.09
	c-0.903,0-1.615-0.027-2.084-0.053c-0.138-0.006-0.247-0.014-0.341-0.023v6.461c0.581,0.037,1.401,0.062,2.425,0.062
	C54.161,76.812,63.096,76.178,72.434,71.855z"/>
</svg>
