<svg version="1.0" id="eight" xmlns="http://www.w3.org/2000/svg" xmlns:xlink="http://www.w3.org/1999/xlink" x="0px" y="0px"
	 width="150px" height="150px" viewBox="0 0 150 150" enable-background="new 0 0 150 150" xml:space="preserve">
<circle id="_x33_" cx="75.876" cy="76.08" r="73.856"/>
<path id="_x32_" fill="#FFFFFF" d="M147.441,73.787c0,40.793-33.067,73.859-73.857,73.859c-40.787,0-73.852-33.066-73.852-73.859
	c0-40.785,33.064-73.852,73.852-73.852C114.374-0.064,147.441,33.002,147.441,73.787z"/>
<path id="_x31_" fill-rule="evenodd" clip-rule="evenodd" fill="#FF6600" d="M85.134,62.17H62.042c-0.892,0-1.612,0.721-1.612,1.611
	s0.721,1.609,1.612,1.609h23.092c0.89,0,1.611-0.719,1.611-1.609S86.023,62.17,85.134,62.17z M85.134,47.848H62.042
	c-0.892,0-1.612,0.721-1.612,1.611s0.721,1.611,1.612,1.611h23.092c0.89,0,1.611-0.721,1.611-1.611S86.023,47.848,85.134,47.848z
	 M85.134,55.01H62.042c-0.892,0-1.612,0.721-1.612,1.611c0,0.889,0.721,1.611,1.612,1.611h23.092c0.89,0,1.611-0.723,1.611-1.611
	C86.745,55.73,86.023,55.01,85.134,55.01z M104.492,81.338l-3.124-13.4c-0.616-2.137-1.782-4.023-3.884-4.252v-24.43
	c0-1.184-0.961-2.146-2.146-2.146H52.105c-1.186,0-2.148,0.963-2.148,2.146v24.406c-1.392,0.109-3.579,1.811-4.151,4.275
	l-3.126,13.4c-1.975,0.389-3.463,2.125-3.463,4.213v19.492c0,2.373,1.922,4.295,4.296,4.295h60.148c2.374,0,4.296-1.922,4.296-4.295
	V85.551C107.957,83.463,106.467,81.727,104.492,81.338z M91.64,100.061c0,1.186-0.96,2.146-2.147,2.146H88.15
	c-1.186,0-2.148-0.961-2.148-2.146v-1.346c0-1.186,0.963-2.146,2.148-2.146h1.342c1.188,0,2.147,0.961,2.147,2.146V100.061z
	 M91.847,82.287L55.62,82.27V70.914c-0.008-0.08-0.024-0.16-0.024-0.242V44.895c0-1.186,0.963-2.146,2.147-2.146h31.954
	c1.188,0,2.149,0.961,2.149,2.146V82.287z M100.576,100.061c0,1.186-0.959,2.146-2.147,2.146h-1.343
	c-1.187,0-2.147-0.961-2.147-2.146v-1.346c0-1.186,0.961-2.146,2.147-2.146h1.343c1.188,0,2.147,0.961,2.147,2.146V100.061z
	 M74.393,69.33H62.042c-0.892,0-1.612,0.723-1.612,1.611s0.721,1.611,1.612,1.611h12.351c0.89,0,1.61-0.723,1.61-1.611
	S75.282,69.33,74.393,69.33z"/>
</svg>
