<svg version="1.0" id="first" xmlns="http://www.w3.org/2000/svg" x="0px" y="0px"
	 width="150px" height="150px" viewBox="0 0 150 150" enable-background="new 0 0 150 150" xml:space="preserve">
<circle id="shadow" fill="#666268" cx="75.841" cy="76.032" r="73.856"/>
<path id="oval" fill="#FFFFFF" d="M147.406,73.741c0,40.793-33.067,73.859-73.857,73.859c-40.787,0-73.852-33.066-73.852-73.859
	c0-40.787,33.064-73.854,73.852-73.854C114.339-0.112,147.406,32.954,147.406,73.741z"/>
<path id="price" fill="#FF6600" d="M21.948,98.189v-2.473l3.16-3.068c7.601-7.234,11.035-11.08,11.081-15.568
	c0-3.022-1.465-5.816-5.907-5.816c-2.701,0-4.945,1.374-6.319,2.519l-1.282-2.839c2.061-1.74,4.991-3.022,8.426-3.022
	c6.411,0,9.112,4.396,9.112,8.655c0,5.496-3.983,9.938-10.257,15.98l-2.381,2.199v0.092h13.371v3.342H21.948z M61.514,71.264
	c-0.825-0.046-1.878,0-3.022,0.184c-6.319,1.053-9.662,5.677-10.35,10.578h0.138c1.42-1.877,3.893-3.434,7.189-3.434
	c5.266,0,8.975,3.801,8.975,9.615c0,5.449-3.709,10.486-9.891,10.486c-6.365,0-10.532-4.945-10.532-12.684
	c0-5.861,2.106-10.487,5.037-13.417c2.473-2.427,5.77-3.938,9.524-4.396c1.191-0.184,2.198-0.229,2.932-0.229V71.264z
	 M60.368,88.436c0-4.258-2.427-6.822-6.136-6.822c-2.427,0-4.671,1.512-5.77,3.664c-0.275,0.457-0.458,1.053-0.458,1.785
	c0.092,4.9,2.335,8.518,6.548,8.518C58.033,95.58,60.368,92.695,60.368,88.436z M86.884,82.986c0,10.121-3.755,15.707-10.349,15.707
	c-5.816,0-9.754-5.449-9.846-15.295c0-9.982,4.305-15.477,10.349-15.477C83.312,67.921,86.884,73.508,86.884,82.986z M70.719,83.445
	c0,7.738,2.382,12.135,6.045,12.135c4.121,0,6.09-4.809,6.09-12.41c0-7.327-1.877-12.134-6.044-12.134
	C73.283,71.036,70.719,75.34,70.719,83.445z M109.46,82.986c0,10.121-3.755,15.707-10.349,15.707c-5.816,0-9.754-5.449-9.846-15.295
	c0-9.982,4.305-15.477,10.349-15.477C105.888,67.921,109.46,73.508,109.46,82.986z M93.295,83.445
	c0,7.738,2.382,12.135,6.045,12.135c4.121,0,6.09-4.809,6.09-12.41c0-7.327-1.877-12.134-6.044-12.134
	C95.859,71.036,93.295,75.34,93.295,83.445z M114.521,90.27l4.515-5.875c0.433-0.537,0.845-1.01,1.299-1.547v-0.041h-5.401v-1.463
	h7.607l-0.021,1.133l-4.452,5.793c-0.412,0.557-0.825,1.051-1.278,1.566v0.041h5.834v1.443h-8.102V90.27z M124.145,91.32v-5.936
	l-1.401,1.195v-1.424l1.401-1.215v-7.258h1.814v5.877l1.464-1.258v1.443l-1.464,1.256v7.318H124.145z M72.617,39.539v12.06
	c0,0.887,0.021,1.896,0.082,2.577H71.07l-0.082-1.731h-0.041c-0.557,1.113-1.773,1.958-3.401,1.958
	c-2.412,0-4.268-2.041-4.268-5.071c-0.021-3.318,2.041-5.359,4.474-5.359c1.525,0,2.556,0.722,3.01,1.525h0.041v-5.958H72.617z
	 M70.803,48.259c0-0.228-0.021-0.536-0.082-0.763c-0.269-1.155-1.258-2.104-2.618-2.104c-1.876,0-2.989,1.649-2.989,3.855
	c0,2.021,0.989,3.689,2.948,3.689c1.216,0,2.329-0.804,2.659-2.164c0.062-0.247,0.082-0.495,0.082-0.783V48.259z M84.24,49.104
	c0,3.69-2.557,5.298-4.968,5.298c-2.701,0-4.783-1.979-4.783-5.133c0-3.34,2.186-5.298,4.947-5.298
	C82.303,43.971,84.24,46.053,84.24,49.104z M76.324,49.208c0,2.185,1.258,3.834,3.03,3.834c1.731,0,3.03-1.629,3.03-3.876
	c0-1.69-0.845-3.834-2.989-3.834C77.252,45.332,76.324,47.311,76.324,49.208z"/>
</svg>
