<svg version="1.0" id="fourth" xmlns="http://www.w3.org/2000/svg" xmlns:xlink="http://www.w3.org/1999/xlink" x="0px" y="0px"
	 width="150px" height="150px" viewBox="0 0 150 150" enable-background="new 0 0 150 150" xml:space="preserve">
<path id="_x33_" fill="#666268" d="M150,76.032c0,40.789-33.064,73.855-73.853,73.855c-40.793,0-73.857-33.066-73.857-73.855
	c0-40.787,33.064-73.855,73.857-73.855C116.936,2.177,150,35.245,150,76.032z"/>
<path id="_x32_" fill="#FFFFFF" d="M147.712,73.741c0,40.793-33.066,73.859-73.855,73.859C33.066,147.601,0,114.534,0,73.741
	C0,32.954,33.066-0.112,73.856-0.112C114.646-0.112,147.712,32.954,147.712,73.741z"/>
<path id="_x31_" fill="#FF6600" d="M29.84,80.717v3.945H14.851v-3.945H29.84z M55.508,64.151h-15.05L38.94,74.285
	c0.911-0.121,1.761-0.242,3.217-0.242c3.034,0,6.068,0.667,8.496,2.124c3.095,1.76,5.644,5.158,5.644,10.135
	c0,7.707-6.129,13.473-14.686,13.473c-4.309,0-7.95-1.215-9.831-2.428l1.335-4.066c1.639,0.971,4.854,2.186,8.436,2.186
	c5.036,0,9.345-3.277,9.345-8.557c-0.061-5.098-3.459-8.74-11.348-8.74c-2.245,0-4.005,0.244-5.462,0.426l2.549-18.933h18.873
	V64.151z M86.878,78.957c0,13.412-4.976,20.816-13.715,20.816c-7.707,0-12.926-7.223-13.047-20.27
	c0-13.229,5.704-20.511,13.715-20.511C82.145,58.993,86.878,66.396,86.878,78.957z M65.456,79.564
	c0,10.256,3.156,16.082,8.011,16.082c5.462,0,8.071-6.373,8.071-16.445c0-9.71-2.488-16.082-8.011-16.082
	C68.854,63.12,65.456,68.824,65.456,79.564z M107.144,70.765c0,8.315-4.37,12.44-9.467,12.44c-4.916,0-9.164-3.943-9.225-11.893
	c0-7.89,4.309-12.319,9.527-12.319C103.502,58.993,107.144,63.241,107.144,70.765z M92.7,71.129
	c-0.121,5.037,1.76,8.861,5.098,8.861c3.52,0,5.098-3.764,5.098-8.982c0-4.794-1.396-8.8-5.098-8.8
	C94.46,62.208,92.7,66.154,92.7,71.129z M97.312,99.773l23.181-40.781h3.398l-23.181,40.781H97.312z M132.812,87.09
	c0,8.312-4.369,12.439-9.406,12.439c-4.915,0-9.163-3.943-9.224-11.832c0-7.951,4.309-12.38,9.527-12.38
	C129.232,75.317,132.812,79.564,132.812,87.09z M118.37,87.453c-0.062,5.037,1.881,8.861,5.158,8.861
	c3.52,0,5.097-3.764,5.097-8.982c0-4.793-1.396-8.799-5.097-8.799C120.19,78.533,118.37,82.477,118.37,87.453z M74.071,30.377v12.06
	c0,0.887,0.021,1.896,0.082,2.577h-1.629l-0.082-1.731h-0.041c-0.557,1.113-1.773,1.958-3.401,1.958
	c-2.412,0-4.268-2.041-4.268-5.071c-0.021-3.318,2.041-5.359,4.474-5.359c1.525,0,2.556,0.722,3.01,1.525h0.041v-5.958H74.071z
	 M72.257,39.098c0-0.228-0.021-0.536-0.082-0.763c-0.269-1.155-1.258-2.104-2.618-2.104c-1.876,0-2.989,1.649-2.989,3.855
	c0,2.021,0.989,3.689,2.948,3.689c1.216,0,2.329-0.804,2.659-2.164c0.062-0.247,0.082-0.495,0.082-0.783V39.098z M85.694,39.943
	c0,3.69-2.557,5.298-4.968,5.298c-2.701,0-4.783-1.979-4.783-5.133c0-3.34,2.186-5.298,4.947-5.298
	C83.757,34.81,85.694,36.892,85.694,39.943z M77.778,40.046c0,2.185,1.258,3.834,3.03,3.834c1.731,0,3.03-1.629,3.03-3.876
	c0-1.69-0.845-3.834-2.989-3.834C78.706,36.17,77.778,38.15,77.778,40.046z"/>
</svg>
