<svg version="1.0" id="second" xmlns="http://www.w3.org/2000/svg" xmlns:xlink="http://www.w3.org/1999/xlink" x="0px" y="0px"
	 width="150px" height="150px" viewBox="0 0 150 150" enable-background="new 0 0 150 150" xml:space="preserve">
<circle id="_x33_" fill="#666268" cx="76.145" cy="76.032" r="73.855"/>
<path id="_x32_" fill="#FFFFFF" d="M147.709,73.741c0,40.793-33.064,73.859-73.855,73.859C33.063,147.601,0,114.534,0,73.741
	C0,32.954,33.063-0.112,73.854-0.112C114.645-0.112,147.709,32.954,147.709,73.741z"/>
<path id="_x31_" fill="#FF6600" d="M30.443,74.225v3.945H15.454v-3.945H30.443z M45.369,58.144h-0.121l-6.857,3.702l-1.031-4.066
	l8.617-4.611h4.551v39.445h-5.158V58.144z M85.054,72.465c0,13.412-4.976,20.816-13.715,20.816c-7.707,0-12.926-7.223-13.047-20.269
	c0-13.229,5.704-20.512,13.715-20.512C80.32,52.5,85.054,59.904,85.054,72.465z M63.632,73.073c0,10.255,3.156,16.082,8.011,16.082
	c5.462,0,8.071-6.373,8.071-16.446c0-9.71-2.488-16.081-8.011-16.081C67.03,56.627,63.632,62.332,63.632,73.073z M106.533,64.273
	c0,8.314-4.37,12.44-9.467,12.44c-4.916,0-9.164-3.944-9.225-11.893c0-7.89,4.309-12.319,9.527-12.319
	C102.892,52.5,106.533,56.749,106.533,64.273z M92.09,64.637c-0.121,5.037,1.76,8.86,5.098,8.86c3.52,0,5.098-3.763,5.098-8.981
	c0-4.794-1.396-8.8-5.098-8.8C93.85,55.716,92.09,59.662,92.09,64.637z M96.702,93.281L119.883,52.5h3.398l-23.181,40.781H96.702z
	 M132.202,80.598c0,8.312-4.369,12.439-9.406,12.439c-4.915,0-9.163-3.943-9.224-11.832c0-7.951,4.309-12.38,9.527-12.38
	C128.622,68.825,132.202,73.073,132.202,80.598z M117.76,80.961c-0.062,5.037,1.881,8.861,5.157,8.861
	c3.521,0,5.098-3.764,5.098-8.982c0-4.793-1.396-8.799-5.098-8.799C119.58,72.041,117.76,75.985,117.76,80.961z"/>
</svg>
