<svg version="1.0" id="_x31_1" xmlns="http://www.w3.org/2000/svg" xmlns:xlink="http://www.w3.org/1999/xlink" x="0px" y="0px"
	 width="150px" height="150px" viewBox="0 0 150 150" enable-background="new 0 0 150 150" xml:space="preserve">
<circle id="_x33_" fill="#676369" cx="76.043" cy="76.145" r="73.856"/>
<path id="_x32_" fill="#FFFFFF" d="M147.608,73.852c0,40.793-33.067,73.859-73.857,73.859c-40.787,0-73.852-33.066-73.852-73.859
	C-0.101,33.066,32.964,0,73.751,0C114.541,0,147.608,33.066,147.608,73.852z"/>
<path id="_x31_" fill="#F26822" d="M65.055,67.641c-3.695-2.133-5.357-4.936-4.869-7.469l-7.701-4.387L28.18,69.799l33.135,19.133
	l24.496-14.148l-7.635-4.352C73.75,70.762,68.803,69.809,65.055,67.641z M28.176,83.072v3.934l33.139,19.127l24.496-14.141v-3.934
	l-24.496,14.152L28.176,83.072z M28.176,74.891v3.922l33.139,19.133l24.496-14.146v-3.932l-24.496,14.15L28.176,74.891z
	 M28.176,91.275v3.934l33.139,19.127l24.496-14.146v-3.93l-24.496,14.154L28.176,91.275z M100.262,66.445l20.205-11.666
	L87.33,35.645L67.154,47.293l33.107,19.082V66.445z M100.262,83.639l20.203-11.668v-3.928l-20.203,11.666V83.639z M54.623,54.553
	l33.328,19v25.508l10.145-5.855V67.707L64.98,48.613L54.623,54.553z M100.262,75.445l20.203-11.668V59.85l-20.203,11.672V75.445z
	 M100.262,91.842l20.203-11.672v-3.924l-20.203,11.666V91.842z"/>
</svg>
