<svg version="1.0" id="line" xmlns="http://www.w3.org/2000/svg" xmlns:xlink="http://www.w3.org/1999/xlink" x="0px" y="0px"
	 width="1166px" height="18px" viewBox="0 0 1166 18" enable-background="new 0 0 1166 18" xml:space="preserve">
<g>
	<g>
		<linearGradient id="SVGID_1_" gradientUnits="userSpaceOnUse" x1="588.6934" y1="8.9478" x2="1166.5117" y2="8.9478">
			<stop  offset="0" style="stop-color:#FF6600"/>
			<stop  offset="1" style="stop-color:#FF6600;stop-opacity:0"/>
		</linearGradient>
		<path fill="url(#SVGID_1_)" d="M1166.012,9.448H589.193c-0.276,0-0.5-0.225-0.5-0.5c0-0.277,0.224-0.5,0.5-0.5h576.818
			c0.276,0,0.5,0.223,0.5,0.5C1166.512,9.223,1166.288,9.448,1166.012,9.448z"/>
	</g>
	<g>
		<linearGradient id="SVGID_2_" gradientUnits="userSpaceOnUse" x1="1.4883" y1="8.9478" x2="579.5" y2="8.9478">
			<stop  offset="0" style="stop-color:#FF6600;stop-opacity:0"/>
			<stop  offset="1" style="stop-color:#FF6600"/>
		</linearGradient>
		<path fill="url(#SVGID_2_)" d="M579,9.448H1.988c-0.276,0-0.5-0.225-0.5-0.5c0-0.277,0.224-0.5,0.5-0.5H579
			c0.276,0,0.5,0.223,0.5,0.5C579.5,9.223,579.276,9.448,579,9.448z"/>
	</g>
</g>
<path fill="none" stroke="#FF6600" stroke-linecap="round" stroke-miterlimit="10" d="M580.416,0.194l8.754,8.754 M579.067,8.948
	l8.753,8.753"/>
</svg>
