<svg version="1.0" id="third" xmlns="http://www.w3.org/2000/svg" xmlns:xlink="http://www.w3.org/1999/xlink" x="0px" y="0px"
	 width="150px" height="150px" viewBox="0 0 150 150" enable-background="new 0 0 150 150" xml:space="preserve">
<circle id="_x33_" fill="#666268" cx="75.882" cy="76.032" r="73.855"/>
<path id="_x32_" fill="#FFFFFF" d="M147.448,73.741c0,40.793-33.064,73.858-73.854,73.858c-40.791,0-73.857-33.065-73.857-73.858
	c0-40.787,33.066-73.854,73.857-73.854C114.384-0.112,147.448,32.954,147.448,73.741z"/>
<path id="_x31_" fill="#FF6600" d="M42.742,58.145h-0.121l-6.857,3.702l-1.031-4.066l8.617-4.611h4.55v39.444h-5.158V58.145z
	 M95.107,63.242c-0.121,2.124-0.242,4.49-0.242,8.071v17.052c0,6.736-1.336,10.861-4.188,13.41
	c-2.853,2.67-6.979,3.521-10.681,3.521c-3.521,0-7.403-0.851-9.771-2.427l1.335-4.066c1.942,1.215,4.977,2.307,8.617,2.307
	c5.463,0,9.467-2.853,9.467-10.256v-3.276h-0.121c-1.639,2.731-4.793,4.916-9.346,4.916c-7.282,0-12.501-6.19-12.501-14.321
	c0-9.953,6.493-15.597,13.229-15.597c5.098,0,7.889,2.671,9.162,5.098h0.123l0.242-4.43L95.107,63.242L95.107,63.242z
	 M89.586,74.833c0-0.91-0.061-1.699-0.304-2.428c-0.972-3.095-3.58-5.644-7.464-5.644c-5.098,0-8.738,4.309-8.738,11.105
	c0,5.765,2.913,10.559,8.678,10.559c3.277,0,6.25-2.062,7.403-5.461c0.304-0.909,0.425-1.942,0.425-2.853V74.833z M103.357,72.405
	c0-3.459-0.061-6.433-0.241-9.163h4.673l0.182,5.765h0.243c1.335-3.944,4.552-6.433,8.132-6.433c0.606,0,1.031,0.062,1.518,0.183
	v5.036c-0.547-0.121-1.094-0.182-1.82-0.182c-3.764,0-6.434,2.853-7.161,6.857c-0.121,0.729-0.243,1.578-0.243,2.488v15.655h-5.279
	V72.405H103.357z"/>
</svg>
