<svg version="1.0" id="_x31_2" xmlns="http://www.w3.org/2000/svg" xmlns:xlink="http://www.w3.org/1999/xlink" x="0px" y="0px"
	 width="150px" height="150px" viewBox="0 0 150 150" enable-background="new 0 0 150 150" xml:space="preserve">
<circle id="_x33_" fill="#676369" cx="75.998" cy="76.089" r="73.855"/>
<path id="_x32_" fill="#FFFFFF" d="M147.562,73.796c0,40.793-33.064,73.859-73.855,73.859c-40.79,0-73.854-33.066-73.854-73.859
	c0-40.785,33.063-73.852,73.854-73.852C114.498-0.056,147.562,33.011,147.562,73.796z"/>
<path id="_x31_" fill="#F26822" d="M77.783,86.358H67.312c-1.959,0-3.539,1.58-3.539,3.539v27.914c0,1.953,1.58,3.541,3.539,3.541
	h10.471c1.953,0,3.541-1.588,3.541-3.541V89.897C81.324,87.938,79.736,86.358,77.783,86.358z M72.549,117.435
	c-2.014,0-3.643-1.629-3.643-3.639c0-2.016,1.629-5.541,3.643-5.541s3.645,3.525,3.645,5.541
	C76.193,115.806,74.562,117.435,72.549,117.435z M87.309,65.058H42.674c-2.297,0-4.16-1.863-4.16-4.16V49.476v-6.588
	c0-2.293,1.863-4.16,4.16-4.16h59.75c2.295,0,4.158,1.867,4.158,4.16v18.01c0,2.297-1.863,4.16-4.158,4.16H87.309z M34.963,44.274
	h2.152v4.965v10.271h-2.152c-1.477,0-2.672-1.193-2.672-2.666v-8.242V46.94C32.291,45.468,33.486,44.274,34.963,44.274z
	 M110.135,59.511h-2.158V44.274h2.158c1.471,0,2.67,1.193,2.67,2.666v9.904C112.805,58.317,111.605,59.511,110.135,59.511z
	 M123.445,74.794c-0.113,0.26-0.248,0.52-0.393,0.764c-0.02,0.043-0.035,0.084-0.062,0.127c0,0-0.004-0.006-0.01-0.006
	c-1.504,2.52-4.25,4.215-7.393,4.215H75.414v4.584h-5.738V74.155h45.895h0.018c1.584,0,2.873-1.289,2.873-2.875V57.636
	c0-1.582-1.289-2.869-2.873-2.869h-1.328v-5.746h1.328c4.754,0,8.615,3.871,8.615,8.615V71.28c0,0.359-0.029,0.711-0.074,1.061
	c-0.014,0.105-0.027,0.211-0.045,0.311c-0.041,0.256-0.092,0.51-0.162,0.76c-0.018,0.094-0.041,0.193-0.072,0.287
	c-0.094,0.326-0.203,0.645-0.336,0.953C123.494,74.698,123.469,74.747,123.445,74.794z"/>
</svg>
