<svg version="1.0" id="_x31_3" xmlns="http://www.w3.org/2000/svg" xmlns:xlink="http://www.w3.org/1999/xlink" x="0px" y="0px"
	 width="150px" height="150px" viewBox="0 0 150 150" enable-background="new 0 0 150 150" xml:space="preserve">
<path id="_x33_" fill="#676369" d="M149.374,76.087c0,40.791-33.065,73.857-73.853,73.857c-40.791,0-73.857-33.066-73.857-73.857
	C1.664,35.3,34.73,2.231,75.521,2.231C116.309,2.231,149.374,35.3,149.374,76.087z"/>
<path id="_x32_" fill="#FFFFFF" d="M147.085,73.796c0,40.793-33.064,73.859-73.854,73.859c-40.791,0-73.857-33.066-73.857-73.859
	c0-40.785,33.066-73.854,73.857-73.854C114.021-0.058,147.085,33.011,147.085,73.796z"/>
<path id="_x31_" fill="#F26822" d="M88.583,62.671c-1.708,1.709-4.479,1.709-6.187,0c-0.426-0.42-0.74-0.908-0.955-1.43
	l-8.215,8.215l-8.463-8.461c0.792-0.178,1.546-0.568,2.159-1.184c1.71-1.705,1.71-4.479-0.002-6.191
	c-1.708-1.701-4.479-1.701-6.186,0c-0.613,0.619-1.007,1.369-1.181,2.16l-8.465-8.463l22.137-22.137l22.139,22.137l-8.212,8.215
	c0.521,0.211,1.009,0.525,1.43,0.947C90.291,58.192,90.291,60.962,88.583,62.671z M90.487,89.097
	c0.421-0.422,0.737-0.912,0.954-1.43l8.213,8.209l22.137-22.135L99.654,51.604l-8.467,8.461c0.791,0.176,1.545,0.568,2.157,1.182
	c1.71,1.709,1.71,4.48,0,6.186c-1.712,1.715-4.483,1.715-6.191,0c-0.612-0.613-1.003-1.365-1.175-2.158l-8.464,8.467l8.214,8.211
	c-0.52,0.217-1.009,0.531-1.431,0.957c-1.709,1.707-1.709,4.475,0,6.188C86.006,90.804,88.776,90.804,90.487,89.097z M57.756,91.118
	c0.422,0.42,0.909,0.738,1.432,0.951l-8.214,8.215l22.138,22.135l22.135-22.135l-8.462-8.469c-0.176,0.791-0.567,1.545-1.177,2.16
	c-1.712,1.707-4.482,1.707-6.191,0c-1.711-1.713-1.711-4.484,0-6.193c0.613-0.611,1.366-1.002,2.159-1.176l-8.464-8.461L64.9,86.36
	c-0.217-0.523-0.532-1.01-0.953-1.43c-1.713-1.713-4.483-1.713-6.191,0C56.048,86.638,56.048,89.409,57.756,91.118z M55.973,58.384
	c-0.424,0.428-0.743,0.914-0.953,1.434l-8.215-8.213L24.668,73.741l22.137,22.135l8.466-8.463c-0.794-0.172-1.544-0.564-2.159-1.176
	c-1.708-1.709-1.708-4.484,0-6.191c1.711-1.707,4.481-1.707,6.189-0.006c0.615,0.619,1.004,1.373,1.174,2.164l8.469-8.463
	l-8.214-8.211c0.522-0.215,1.009-0.533,1.431-0.955c1.709-1.711,1.709-4.479,0-6.191C60.452,56.677,57.68,56.677,55.973,58.384z"/>
</svg>
