<svg version="1.0" id="five" xmlns="http://www.w3.org/2000/svg" xmlns:xlink="http://www.w3.org/1999/xlink" x="0px" y="0px"
	 width="150px" height="150px" viewBox="0 0 150 150" enable-background="new 0 0 150 150" xml:space="preserve">
<circle id="_x33_" cx="76.876" cy="76.141" r="73.856"/>
<path id="_x32_" fill="#FFFFFF" d="M148.441,73.85c0,40.793-33.067,73.859-73.857,73.859c-40.787,0-73.852-33.066-73.852-73.859
	c0-40.787,33.064-73.854,73.852-73.854C115.374-0.004,148.441,33.062,148.441,73.85z"/>
<path id="_x31_" fill="#FF6600" d="M41.793,100.186h65.588c1.229,0,2.232,1.008,2.232,2.232v0.029c0,1.234-1.003,2.236-2.232,2.236
	H41.793c-1.229,0-2.235-1.002-2.235-2.236v-0.029C39.558,101.193,40.563,100.186,41.793,100.186z M46.736,59.217
	c0,0.773,0.71,1.408,1.575,1.408h52.551c0.865,0,1.574-0.635,1.574-1.408c0-0.771-0.709-1.406-1.574-1.406H48.312
	C47.446,57.811,46.736,58.445,46.736,59.217z M113.75,107.002H35.425c-1.227,0-2.233,1.008-2.233,2.238v1.082
	c0,1.23,1.007,2.229,2.233,2.229h78.325c1.228,0,2.232-0.998,2.232-2.229v-1.082C115.982,108.01,114.978,107.002,113.75,107.002z
	 M48.697,93.617V67.143H47.79c-1.229,0-2.237-0.924-2.237-2.062c0-1.135,1.008-2.061,2.237-2.061h11.236
	c1.228,0,2.233,0.926,2.233,2.061c0,1.139-1.006,2.062-2.233,2.062H58.12v26.475h0.906c1.228,0,2.233,0.924,2.233,2.061
	s-1.006,2.062-2.233,2.062H47.79c-1.229,0-2.237-0.926-2.237-2.062s1.008-2.061,2.237-2.061H48.697z M53.037,90.473
	c0,0.615,0.492,1.117,1.09,1.117c0.602,0,1.091-0.502,1.091-1.117V70.285c0-0.613-0.489-1.115-1.091-1.115
	c-0.598,0-1.09,0.502-1.09,1.115V90.473z M79.3,67.143v26.475h0.904c1.232,0,2.236,0.924,2.236,2.061s-1.004,2.062-2.236,2.062
	H68.968c-1.23,0-2.235-0.926-2.235-2.062s1.005-2.061,2.235-2.061h0.909V67.143h-0.909c-1.23,0-2.235-0.924-2.235-2.062
	c0-1.135,1.005-2.061,2.235-2.061h11.236c1.232,0,2.236,0.926,2.236,2.061c0,1.139-1.004,2.062-2.236,2.062H79.3z M76.399,70.285
	c0-0.613-0.491-1.115-1.092-1.115s-1.091,0.502-1.091,1.115v20.188c0,0.615,0.49,1.117,1.091,1.117s1.092-0.502,1.092-1.117V70.285z
	 M100.479,67.143v26.475h0.904c1.23,0,2.233,0.924,2.233,2.061s-1.003,2.062-2.233,2.062H90.146c-1.228,0-2.235-0.926-2.235-2.062
	s1.008-2.061,2.235-2.061h0.907V67.143h-0.907c-1.228,0-2.235-0.924-2.235-2.062c0-1.135,1.008-2.061,2.235-2.061h11.237
	c1.23,0,2.233,0.926,2.233,2.061c0,1.139-1.003,2.062-2.233,2.062H100.479z M97.579,70.285c0-0.613-0.492-1.115-1.09-1.115
	c-0.602,0-1.093,0.502-1.093,1.115v20.188c0,0.615,0.491,1.117,1.093,1.117c0.598,0,1.09-0.502,1.09-1.117V70.285z M39.438,58.328
	c0.781,0.943,2.253,1.156,3.268,0.461l30.073-20.508c1.013-0.693,2.677-0.693,3.694,0l30.07,20.508
	c1.019,0.695,2.489,0.482,3.271-0.461l0.675-0.822c0.781-0.943,0.591-2.283-0.428-2.971L76.515,31.854
	c-1.017-0.684-1.861-1.24-1.869-1.236c-0.012,0.006-0.029,0.006-0.039,0c-0.012-0.004-0.854,0.553-1.871,1.236L39.191,54.535
	c-1.02,0.688-1.215,2.027-0.428,2.971L39.438,58.328z M95.27,55.84c1.229,0,1.4-0.562,0.382-1.252L76.438,41.625
	c-1.018-0.684-2.686-0.684-3.703,0L53.522,54.588c-1.018,0.689-0.849,1.252,0.382,1.252H95.27z"/>
</svg>
