<svg version="1.0" id="nine" xmlns="http://www.w3.org/2000/svg" xmlns:xlink="http://www.w3.org/1999/xlink" x="0px" y="0px"
	 width="150px" height="150px" viewBox="0 0 150 150" enable-background="new 0 0 150 150" xml:space="preserve">
<circle id="_x33_" cx="76.145" cy="76.145" r="73.855"/>
<path id="_x32_" fill="#FFFFFF" d="M147.709,73.852c0,40.793-33.064,73.859-73.855,73.859C33.063,147.711,0,114.645,0,73.852
	C0,33.066,33.063,0,73.854,0C114.645,0,147.709,33.066,147.709,73.852z"/>
<path id="_x31_" fill="#FF6600" d="M62.741,58.459c10.703,0,19.429-3.197,19.836-7.195c0.01-0.094,0.014-0.195,0.014-0.289
	l0.016-0.01v-5.088c0-4.23-8.893-7.668-19.865-7.668c-10.969,0-19.865,3.438-19.865,7.668v5.104l0.015-0.006
	C42.891,55.107,51.781,58.459,62.741,58.459z M52.97,56.406c-0.963-0.205-1.872-0.436-2.727-0.699v-3.934
	c0.851,0.271,1.764,0.51,2.727,0.73V56.406z M58.415,57.195c-0.936-0.08-1.846-0.18-2.723-0.309v-3.883
	c0.877,0.129,1.784,0.238,2.723,0.318V57.195z M63.859,57.361c-0.37,0.01-0.745,0.01-1.118,0.01c-0.541,0-1.073-0.01-1.605-0.025
	v-3.863c0.524,0.021,1.062,0.031,1.6,0.031c0.379,0,0.754-0.01,1.124-0.018V57.361z M80.198,53.281
	c-0.473,0.441-1.279,0.992-2.049,1.34v-4.018c0.785-0.389,1.473-0.809,2.049-1.254V53.281z M62.741,39.711
	c9.473,0,17.151,2.693,17.151,6.004c0,3.316-7.679,6.004-17.151,6.004c-9.465,0-17.152-2.688-17.152-6.004
	C45.589,42.404,53.276,39.711,62.741,39.711z M44.798,48.955c0.698,0.635,1.622,1.221,2.725,1.75v4
	c-1.074-0.479-2.342-1.281-2.725-1.781V48.955z M41.993,58.924l0.013-0.004c0,1.924,1.949,3.672,5.118,5.002l1.775-1.809
	c0.149-0.15,0.305-0.301,0.462-0.436v-1.959c0.788,0.25,1.635,0.48,2.515,0.68c0.465-0.109,0.937-0.17,1.424-0.17
	c1.125,0,2.228,0.33,3.185,0.92c0.355,0.039,0.689,0.088,1.047,0.119v0.664l2.723,2.318v-2.822c0.528,0.02,1.057,0.029,1.599,0.029
	c0.377,0,0.753-0.004,1.122-0.016v3.863c-0.369,0.01-0.741,0.016-1.119,0.016c-0.118,0-0.235-0.006-0.352-0.006l1.259,1.068
	c10.282-0.172,18.535-3.291,18.929-7.17c0.013-0.098,0.018-0.195,0.018-0.293l0.014-0.01v-3.629
	c-3.773,3.084-11.49,4.678-18.981,4.678c-8.865,0-18.199-2.309-20.702-6.641c-0.033,0.186-0.055,0.365-0.055,0.549
	c0,0.039,0.005,0.092,0.009,0.129V58.924z M77.266,59.178c0.529-0.219,1.593-0.584,2.05-0.918v2.967
	c-0.473,0.441-1.277,0.99-2.05,1.34V59.178z M43.917,56.9c0.698,0.635,1.619,1.215,2.725,1.748v4.002
	c-1.076-0.473-2.345-1.285-2.725-1.777V56.9z M53.566,71.836L28.591,97.234c-1.493,1.559-3.926,1.578-5.439,0.037
	c-1.514-1.527-1.533-4.031-0.04-5.584L50.56,63.701c1.398-1.461,3.656-1.58,5.189-0.27l16.086,13.699
	c-0.023,0.189-0.036,0.375-0.036,0.566c0,0.039,0,0.094,0.005,0.143v4.914c0,0.09,0.011,0.18,0.024,0.264
	c0.013,0.215,0.046,0.42,0.084,0.629c-0.469,0.211-0.82,0.635-0.917,1.16c-0.056,0.311-0.083,0.574-0.083,0.832
	c0,0.066,0.005,0.127,0.007,0.197v0.785L53.566,71.836z M122.274,42.41l-2.822,21.734c-0.226,1.756-1.796,2.984-3.503,2.756
	c-1.698-0.236-2.897-1.85-2.673-3.598l1.359-10.494l-0.152-0.131l-14.558,16.15c-2.139-0.285-4.376-0.451-6.656-0.451
	c-1.197,0-2.379,0.055-3.549,0.135l18.724-20.766l-0.48-0.395l-9.193,1.729c-1.694,0.316-3.317-0.834-3.624-2.578
	c-0.311-1.738,0.816-3.408,2.508-3.729l20.972-3.932c0.979-0.188,1.985,0.121,2.707,0.83
	C122.061,40.387,122.403,41.396,122.274,42.41z M45.219,65.865c-0.172-0.117-0.316-0.225-0.425-0.32l0.004,0.756l-1.66,1.688
	c-0.149-0.369-0.247-0.74-0.247-1.125l-0.015,0.01v-3.672c0.855,0.695,1.922,1.314,3.134,1.859L45.219,65.865z M82.577,67.158
	c0.01-0.098,0.014-0.193,0.014-0.295l0.016-0.01v-5.086c0-0.166-0.018-0.33-0.044-0.496c-2.25,3.938-10.028,6.168-18.099,6.566
	l6.789,5.775C77.729,72.461,82.287,70.016,82.577,67.158z M80.198,69.178c-0.473,0.439-1.279,0.988-2.049,1.338v-4.021
	c0.637-0.215,1.473-0.689,2.049-1.135V69.178z M49.361,79.426v0.094c0.854,0.26,1.764,0.49,2.724,0.695v-3.557l1.627-1.654
	c0.012,0.004,0.021,0.004,0.034,0.004l2.286,1.953c-0.407-0.053-0.831-0.088-1.227-0.143v3.881c0.882,0.125,1.789,0.225,2.726,0.301
	v-2.758l2.723,2.312v0.605c0.237,0.004,0.483,0.004,0.722,0.01l1.279,1.088c-0.129,0.006-0.265,0.012-0.399,0.012
	c-5.152,0-9.834-0.75-13.365-1.965L49.361,79.426z M43.847,85.018c2.569,3.018,10.06,5.195,18.895,5.195
	c2.885,0,5.615-0.234,8.085-0.654l-6.853-5.84c-0.704,0.029-1.412,0.049-2.118,0.049c-5.158,0-10.478-0.785-14.516-2.295
	l-0.889,0.904c0.319,0.146,0.667,0.285,1.071,0.432v3.65c-1.074-0.473-2.342-1.283-2.725-1.777v-0.629L43.847,85.018z
	 M61.136,85.242c0.524,0.02,1.062,0.029,1.6,0.029c0.379,0,0.754-0.006,1.124-0.021v3.869c-0.37,0.01-0.745,0.014-1.118,0.014
	c-0.541,0-1.073-0.014-1.605-0.029V85.242z M55.692,84.766c0.877,0.127,1.784,0.236,2.723,0.316v3.867
	c-0.936-0.074-1.846-0.182-2.723-0.305V84.766z M50.243,83.533c0.851,0.266,1.764,0.516,2.727,0.73v3.896
	c-0.963-0.201-1.872-0.436-2.727-0.691V83.533z M62.741,91.713c-8.141,0-16.668-1.955-19.943-5.627l-0.805,0.82v3.771l0.013-0.004
	c0,4.137,8.895,7.484,19.85,7.484c3.698,0,7.15-0.387,10.109-1.045V94.98c0-0.395,0.169-0.771,0.45-1.035
	c-0.764-0.879-1.222-1.857-1.298-2.928C68.44,91.467,65.578,91.713,62.741,91.713z M46.642,94.404
	c-1.076-0.479-2.345-1.283-2.725-1.779V88.66c0.698,0.629,1.619,1.213,2.725,1.742V94.404z M52.085,96.105
	c-0.96-0.201-1.87-0.438-2.724-0.695v-3.943c0.851,0.275,1.761,0.525,2.724,0.74V96.105z M57.531,96.898
	c-0.937-0.08-1.844-0.186-2.726-0.311v-3.883c0.879,0.137,1.789,0.24,2.726,0.32V96.898z M62.975,97.062
	c-0.369,0.006-0.741,0.016-1.119,0.016c-0.537,0-1.073-0.016-1.602-0.029v-3.863c0.528,0.018,1.057,0.025,1.599,0.025
	c0.377,0,0.753-0.006,1.122-0.008V97.062z M92.386,99.682c-7.431,0-15.196-1.635-18.983-4.701v3.666l0.017-0.01
	c0,4.133,8.894,7.484,19.851,7.484c10.701,0,19.429-3.191,19.836-7.189c0.009-0.1,0.016-0.195,0.016-0.295l0.014-0.01v-5.086
	c0-0.166-0.019-0.33-0.048-0.49C110.601,97.408,101.329,99.682,92.386,99.682z M78.049,102.375c-1.074-0.48-2.338-1.289-2.723-1.783
	l-0.005-3.273c0.404,0.363,1.289,0.885,2.728,1.398V102.375z M83.496,104.072c-0.959-0.203-1.871-0.438-2.723-0.699v-3.938
	c0.849,0.275,1.761,0.518,2.723,0.736V104.072z M88.941,104.857c-0.934-0.074-1.843-0.178-2.723-0.305v-3.877
	c0.88,0.125,1.786,0.234,2.723,0.314V104.857z M94.388,105.029c-0.369,0.004-0.744,0.008-1.118,0.008
	c-0.546,0-1.075-0.004-1.604-0.029v-3.857c0.524,0.02,1.059,0.031,1.6,0.031c0.377,0,0.752-0.012,1.123-0.016V105.029z
	 M110.725,100.951c-0.472,0.439-1.277,0.984-2.052,1.338v-4.021c0.643-0.209,1.476-0.684,2.052-1.129V100.951z M72.532,90.688
	c0,4.137,8.895,7.49,19.854,7.49c10.702,0,19.43-3.197,19.836-7.195c0.01-0.1,0.014-0.193,0.014-0.295l0.016-0.006v-3.621
	c-3.771,3.078-11.488,4.672-18.981,4.672c-8.864,0-18.204-2.314-20.701-6.641c-0.036,0.18-0.056,0.365-0.056,0.547
	c0,0.049,0.004,0.092,0.004,0.139v4.92L72.532,90.688z M107.792,90.953c0.533-0.221,1.596-0.586,2.052-0.918v2.967
	c-0.476,0.439-1.28,0.984-2.052,1.338V90.953z M90.781,93.203c0.528,0.02,1.06,0.027,1.599,0.027c0.38,0,0.753-0.004,1.125-0.008
	v3.861c-0.372,0.004-0.743,0.01-1.119,0.01c-0.537,0-1.076-0.01-1.604-0.031V93.203z M85.335,92.727
	c0.879,0.123,1.787,0.234,2.724,0.314v3.873c-0.937-0.08-1.845-0.18-2.724-0.305V92.727z M79.888,91.492
	c0.851,0.27,1.765,0.516,2.727,0.725v3.906c-0.962-0.203-1.872-0.434-2.727-0.693V91.492z M74.447,88.674
	c0.697,0.635,1.618,1.219,2.718,1.748v4.004c-1.068-0.475-2.339-1.289-2.718-1.779V88.674z M72.568,100.951
	c-0.036,0.189-0.056,0.369-0.056,0.555c0,0.045,0.004,0.09,0.004,0.135v4.922l0.016-0.012c0,4.139,8.895,7.49,19.854,7.49
	c10.702,0,19.43-3.191,19.836-7.195c0.01-0.094,0.014-0.189,0.014-0.295l0.016-0.004v-3.623c-3.771,3.078-11.488,4.672-18.981,4.672
	C84.405,107.596,75.065,105.287,72.568,100.951z M77.165,110.289c-1.068-0.479-2.339-1.283-2.718-1.779v-3.967
	c0.697,0.629,1.618,1.215,2.718,1.744V110.289z M82.614,111.988c-0.962-0.205-1.872-0.436-2.727-0.693v-3.938
	c0.851,0.27,1.765,0.514,2.727,0.729V111.988z M88.059,112.777c-0.937-0.074-1.845-0.18-2.724-0.305v-3.883
	c0.879,0.131,1.787,0.238,2.724,0.316V112.777z M107.792,106.816c0.533-0.221,1.596-0.59,2.052-0.92v2.975
	c-0.476,0.434-1.28,0.982-2.052,1.34V106.816z M93.505,112.947c-0.372,0.006-0.743,0.012-1.119,0.012
	c-0.537,0-1.076-0.012-1.604-0.025v-3.863c0.528,0.016,1.06,0.025,1.599,0.025c0.38,0,0.753-0.01,1.125-0.016V112.947z
	 M93.27,69.982c-10.968,0-19.867,3.438-19.867,7.668v5.104l0.017-0.006c0,4.127,8.894,7.48,19.851,7.48
	c10.701,0,19.429-3.193,19.836-7.189c0.009-0.102,0.016-0.195,0.016-0.291l0.014-0.016V77.65
	C113.135,73.42,104.242,69.982,93.27,69.982z M93.27,71.371c9.473,0,17.151,2.742,17.151,6.115c0,3.379-7.679,6.121-17.151,6.121
	c-9.468,0-17.154-2.742-17.154-6.121C76.115,74.113,83.802,71.371,93.27,71.371z M78.049,86.48c-1.074-0.48-2.338-1.289-2.723-1.783
	v-3.963c0.7,0.625,1.621,1.215,2.723,1.744V86.48z M83.496,88.18c-0.959-0.205-1.871-0.436-2.723-0.695v-3.943
	c0.849,0.277,1.761,0.521,2.723,0.736V88.18z M88.941,88.965c-0.934-0.076-1.843-0.182-2.723-0.305v-3.883
	c0.88,0.129,1.786,0.24,2.723,0.314V88.965z M94.388,89.139c-0.369,0-0.744,0.01-1.118,0.01c-0.546,0-1.075-0.01-1.604-0.029v-3.857
	c0.524,0.01,1.059,0.023,1.6,0.023c0.377,0,0.752-0.008,1.123-0.014V89.139z M110.725,85.057c-0.472,0.443-1.277,0.984-2.052,1.344
	v-4.023c0.785-0.395,1.476-0.803,2.052-1.248V85.057z"/>
</svg>
